# xmcd
#
# Track frame offsets: 
#        150
#        20692
#        35322
#        61141
#        80482
#        94954
#        115532
#        128325
#        166478
#
# Disc length: 2468 seconds
#
# Revision: 2
# Processed by: cddbd v1.5.2PL0 Copyright (c) Steve Scherf et al.
# Submitted via: ExactAudioCopyFreeDBPlugin 1.0
#
DISCID=6509a209
DTITLE=Grayson Capps - Scarlett Roses
DYEAR=2017
DGENRE=Blues
TTITLE0=Scarlett Roses
TTITLE1=Hold Me Darlin'
TTITLE2=Bag Of Weed
TTITLE3=You Can't Turn Around
TTITLE4=Thankful
TTITLE5=New Again
TTITLE6=Hit 'em Up Julie
TTITLE7=Taos
TTITLE8=Moving On
EXTD=
EXTT0=
EXTT1=
EXTT2=
EXTT3=
EXTT4=
EXTT5=
EXTT6=
EXTT7=
EXTT8=
PLAYORDER=
